{"glyphs":{"0":{"ha":738,"x_min":42,"x_max":696,"o":"m 371 0 q 204 74 279 0 q 85 276 129 149 q 42 557 42 404 q 85 835 42 708 q 204 1037 129 963 q 371 1111 279 1111 q 535 1037 461 1111 q 653 835 610 963 q 696 557 696 708 q 653 276 696 404 q 535 74 610 149 q 371 0 461 0 m 371 83 q 492 147 436 83 q 580 318 547 210 q 613 557 613 426 q 580 794 613 686 q 492 965 547 901 q 371 1028 436 1028 q 248 965 304 1028 q 158 794 192 901 q 125 557 125 686 q 158 318 125 426 q 248 147 192 210 q 371 83 304 83 z "},"1":{"ha":268,"x_min":42,"x_max":226,"o":"m 226 1111 l 226 0 l 143 0 l 143 1028 l 42 1028 l 42 1111 l 226 1111 z "},"2":{"ha":500,"x_min":42,"x_max":458,"o":"m 458 904 q 417 724 458 821 q 293 471 376 626 q 183 253 224 343 q 126 83 143 164 l 458 83 l 458 0 l 42 0 q 89 227 42 110 q 226 515 136 344 q 339 747 303 661 q 375 904 375 833 q 339 992 375 956 q 251 1028 303 1028 q 162 992 199 1028 q 125 904 125 956 l 42 904 q 69 1008 42 961 q 146 1083 97 1056 q 251 1111 194 1111 q 355 1083 307 1111 q 431 1008 403 1056 q 458 904 458 961 z "},"3":{"ha":860,"x_min":42,"x_max":818,"o":"m 564 744 q 748 608 678 704 q 818 389 818 511 q 766 194 818 283 q 624 53 714 106 q 431 0 535 0 q 236 53 325 0 q 94 194 147 106 q 42 389 42 283 l 125 389 q 167 237 125 307 q 278 125 208 167 q 431 83 349 83 q 582 125 513 83 q 693 237 651 167 q 735 389 735 307 q 693 542 735 471 q 581 656 651 613 q 431 699 511 699 l 372 699 l 372 768 l 431 768 l 432 768 q 519 809 483 768 q 556 904 556 850 q 519 992 556 956 q 432 1028 483 1028 q 342 992 379 1028 q 306 904 306 956 l 222 904 q 250 1008 222 961 q 326 1083 278 1056 q 432 1111 375 1111 q 535 1083 488 1111 q 611 1008 583 1056 q 639 904 639 960 q 619 815 639 856 q 564 744 599 774 z "},"4":{"ha":608,"x_min":42,"x_max":567,"o":"m 567 347 l 567 264 l 511 264 l 511 0 l 428 0 l 428 264 l 42 264 l 344 1111 l 428 1111 l 154 347 l 428 347 l 428 882 l 511 882 l 511 347 l 567 347 z "},"5":{"ha":668,"x_min":42,"x_max":626,"o":"m 626 464 q 565 237 626 343 q 372 65 504 131 q 42 0 240 -1 l 42 83 q 337 138 225 82 q 496 282 449 193 q 543 475 543 371 q 514 619 543 551 q 432 726 485 686 q 313 767 379 767 q 189 733 251 767 l 88 733 l 147 1061 l 147 1111 l 585 1111 l 585 1042 l 226 1042 l 185 813 l 189 813 q 322 840 257 840 q 483 788 414 840 q 589 650 551 736 q 626 464 626 564 z "},"6":{"ha":721,"x_min":42,"x_max":679,"o":"m 42 318 q 55 400 42 357 q 103 517 68 443 q 214 735 138 590 l 400 1111 l 483 1111 l 238 613 q 360 638 294 638 q 518 594 444 638 q 635 476 592 550 q 679 318 679 403 q 636 160 679 233 q 519 43 593 86 q 360 0 446 0 q 201 43 275 0 q 85 160 128 86 q 42 318 42 233 m 125 318 q 156 198 125 251 q 240 114 186 144 q 360 83 293 83 q 482 113 428 83 q 566 197 536 143 q 596 318 596 251 q 530 488 596 422 q 360 554 464 554 q 239 524 293 554 q 155 440 185 494 q 125 318 125 386 z "},"7":{"ha":490,"x_min":42,"x_max":449,"o":"m 449 1111 l 153 0 l 69 0 l 347 1042 l 42 1042 l 42 1111 l 449 1111 z "},"8":{"ha":861,"x_min":42,"x_max":819,"o":"m 678 685 q 782 555 744 632 q 819 389 819 478 q 767 194 819 283 q 625 53 714 106 q 431 0 536 0 q 236 53 325 0 q 94 194 147 106 q 42 389 42 283 q 80 555 42 478 q 185 686 118 632 q 146 826 146 749 q 185 968 146 903 q 289 1072 224 1033 q 431 1111 354 1111 q 573 1072 507 1111 q 678 968 639 1033 q 717 826 717 903 q 678 685 717 750 m 229 826 q 254 729 229 774 q 431 771 338 771 q 608 729 522 771 q 633 826 633 776 q 606 927 633 881 q 531 1001 578 974 q 431 1028 485 1028 q 330 1001 376 1028 q 256 927 283 974 q 229 826 229 881 m 556 668 q 431 694 496 694 q 306 668 367 694 q 431 624 361 624 q 556 668 500 624 m 431 83 q 583 124 513 83 q 695 236 654 165 q 736 389 736 307 q 707 519 736 458 q 626 624 678 579 q 537 567 588 588 q 431 547 486 547 q 324 567 375 547 q 235 624 274 588 q 154 519 183 579 q 125 389 125 458 q 166 236 125 307 q 278 124 207 165 q 431 83 349 83 z "},"9":{"ha":721,"x_min":42,"x_max":679,"o":"m 679 793 q 666 711 679 754 q 618 594 653 668 q 507 376 583 521 l 321 0 l 238 0 l 483 499 q 361 474 428 474 q 203 517 276 474 q 85 635 129 561 q 42 793 42 708 q 85 951 42 878 q 201 1068 128 1025 q 361 1111 275 1111 q 519 1068 446 1111 q 636 951 593 1025 q 679 793 679 878 m 596 793 q 565 913 596 860 q 481 997 535 967 q 361 1028 428 1028 q 239 998 293 1028 q 155 914 185 968 q 125 793 125 860 q 191 623 125 689 q 361 557 257 557 q 482 587 428 557 q 566 671 536 617 q 596 793 596 725 z "},"":{"ha":701,"x_min":42,"x_max":660,"o":"m 353 0 q 228 44 281 0 q 169 161 176 89 q 76 210 111 171 q 42 303 42 249 q 65 386 42 347 l 215 647 q 271 710 236 685 q 354 735 306 735 q 428 716 394 735 q 490 649 463 697 l 639 386 q 660 307 660 350 q 626 212 660 253 q 536 161 592 171 q 478 45 531 90 q 353 0 426 0 m 438 533 q 449 579 449 551 q 424 649 449 618 q 358 679 400 679 q 304 665 325 679 q 265 621 283 651 l 115 360 q 100 307 100 335 q 131 238 100 267 q 201 210 161 210 q 247 223 225 210 q 285 263 269 236 l 438 533 m 422 263 q 504 210 451 210 q 574 239 543 210 q 606 308 606 268 q 592 360 606 333 l 496 528 q 486 506 496 522 l 385 329 l 422 263 m 390 213 q 374 235 376 231 l 353 271 l 332 235 l 317 213 l 390 213 m 353 56 q 438 84 404 56 q 479 157 471 113 l 226 157 q 272 85 236 114 q 353 56 307 56 z "}," ":{"ha":278,"x_min":0,"x_max":0,"o":""},"A":{"ha":458,"x_min":0,"x_max":417,"o":"m 229 1111 q 372 1047 326 1111 q 417 856 417 983 l 417 0 l 333 0 l 333 468 q 303 431 326 444 q 222 397 281 417 l 125 367 l 125 0 l 42 0 l 42 382 l 222 439 q 272 459 254 447 q 289 481 289 471 q 283 488 289 485 q 268 492 278 492 q 218 481 251 492 l 0 410 l 0 454 l 42 468 l 42 856 q 87 1047 42 983 q 229 1111 132 1111 m 218 525 q 278 535 249 535 q 333 508 322 535 l 333 856 q 314 982 333 929 q 229 1035 294 1035 q 144 982 164 1035 q 125 856 125 929 l 125 494 l 218 525 z "},"B":{"ha":558,"x_min":42,"x_max":517,"o":"m 285 782 q 450 688 383 772 q 517 435 517 604 q 458 151 517 247 q 317 28 400 56 q 125 0 233 0 l 42 0 l 42 1111 l 163 1111 q 332 1074 283 1111 q 381 953 381 1038 q 356 860 381 901 q 285 782 331 819 m 125 1035 l 125 751 l 147 769 l 178 793 q 267 873 238 839 q 297 953 297 907 q 262 1019 297 1004 q 163 1035 226 1035 l 125 1035 m 125 83 q 256 99 194 83 q 376 192 318 114 q 433 435 433 269 q 381 646 433 583 q 251 708 328 708 q 151 683 194 708 l 125 661 l 125 83 z "},"C":{"ha":1029,"x_min":42,"x_max":988,"o":"m 925 897 q 776 994 861 960 q 597 1028 692 1028 q 360 965 468 1028 q 188 793 251 901 q 125 556 125 685 q 188 318 125 426 q 360 147 251 210 q 597 83 468 83 q 763 113 685 83 q 904 196 842 142 l 969 143 q 799 38 894 75 q 597 0 703 0 q 319 75 446 0 q 117 277 192 150 q 42 556 42 404 q 117 834 42 707 q 319 1036 192 961 q 597 1111 446 1111 q 810 1069 710 1111 q 988 950 911 1026 l 925 897 z "},"D":{"ha":722,"x_min":42,"x_max":681,"o":"m 167 1111 q 417 1036 299 1111 q 608 833 536 961 q 681 556 681 706 q 608 278 681 406 q 417 75 536 150 q 167 0 299 0 l 42 0 l 42 1111 l 167 1111 m 167 83 q 376 147 276 83 q 536 319 475 211 q 597 556 597 428 q 536 792 597 683 q 376 964 475 900 q 167 1028 276 1028 l 125 1028 l 125 83 l 167 83 z "},"E":{"ha":458,"x_min":0,"x_max":417,"o":"m 125 1049 l 125 879 l 347 879 l 347 817 l 125 817 l 125 619 l 125 525 q 141 260 125 349 q 219 124 157 171 q 417 76 282 76 l 417 0 q 154 65 233 0 q 58 244 75 129 q 42 619 42 360 l 42 817 l 0 817 l 0 879 l 42 879 l 42 1111 l 417 1111 l 417 1049 l 125 1049 z "},"F":{"ha":458,"x_min":0,"x_max":417,"o":"m 417 1049 l 125 1049 l 125 879 l 347 879 l 347 817 l 125 817 l 125 0 l 42 0 l 42 817 l 0 817 l 0 879 l 42 879 l 42 1111 l 417 1111 l 417 1049 z "},"G":{"ha":1194,"x_min":42,"x_max":1153,"o":"m 1151 597 q 1153 556 1153 583 q 1078 277 1153 404 q 876 75 1003 150 q 597 0 749 0 q 319 75 446 0 q 117 277 192 150 q 42 556 42 404 q 117 834 42 707 q 319 1036 192 961 q 597 1111 446 1111 q 810 1069 710 1111 q 988 950 911 1026 l 925 897 q 776 994 861 960 q 597 1028 692 1028 q 360 965 468 1028 q 188 793 251 901 q 125 556 125 685 q 188 318 125 426 q 360 147 251 210 q 597 83 468 83 q 829 143 724 83 q 999 306 935 203 q 1069 535 1064 410 l 633 535 l 633 332 l 571 332 l 571 597 l 1151 597 m 638 256 q 627 231 638 242 q 603 219 617 219 q 578 231 589 219 q 567 256 567 242 q 578 280 567 269 q 603 290 589 290 q 627 280 617 290 q 638 256 638 269 z "},"H":{"ha":458,"x_min":0,"x_max":417,"o":"m 417 1111 l 417 0 l 333 0 l 333 468 q 303 431 326 444 q 222 397 281 417 l 125 367 l 125 0 l 42 0 l 42 382 l 222 439 q 272 459 254 447 q 289 481 289 471 q 283 488 289 485 q 268 492 278 492 q 218 481 251 492 l 0 410 l 0 454 l 42 468 l 42 1111 l 125 1111 l 125 494 l 218 525 q 278 535 249 535 q 333 508 322 535 l 333 1111 l 417 1111 z "},"I":{"ha":167,"x_min":42,"x_max":125,"o":"m 125 1111 l 125 0 l 42 0 l 42 1111 l 125 1111 z "},"J":{"ha":444,"x_min":42,"x_max":403,"o":"m 403 0 q 153 62 229 0 q 59 238 76 124 q 42 597 42 353 l 125 597 l 125 528 q 135 284 125 368 q 188 149 146 200 q 319 82 229 97 l 319 1049 l 169 1049 l 169 1111 l 403 1111 l 403 0 z "},"K":{"ha":458,"x_min":42,"x_max":417,"o":"m 268 831 q 373 794 343 826 q 410 685 403 763 q 417 401 417 607 l 417 0 l 333 0 l 333 401 l 333 524 q 321 706 333 650 q 265 761 308 761 l 231 761 l 125 561 l 125 0 l 42 0 l 42 1111 l 125 1111 l 125 718 l 333 1111 l 417 1111 l 268 831 z "},"L":{"ha":458,"x_min":42,"x_max":417,"o":"m 125 63 l 417 63 l 417 0 l 42 0 l 42 1111 l 125 1111 l 125 63 z "},"M":{"ha":764,"x_min":42,"x_max":722,"o":"m 722 1111 l 722 0 l 639 0 l 639 1026 q 519 972 579 1021 q 418 846 458 922 q 457 647 457 749 q 382 404 457 504 q 307 647 307 504 q 346 846 307 749 q 245 972 306 922 q 125 1026 185 1021 l 125 0 l 42 0 l 42 1111 l 111 1111 q 260 1058 189 1110 q 382 919 331 1006 q 504 1058 433 1006 q 653 1111 575 1110 l 682 1111 l 722 1111 m 382 510 q 400 633 400 569 q 382 757 400 694 q 364 633 364 694 q 382 510 364 569 m 382 360 q 404 350 394 360 q 414 328 414 340 q 404 304 414 314 q 382 294 394 294 q 358 304 368 294 q 349 328 349 314 q 358 350 349 340 q 382 360 368 360 z "},"N":{"ha":458,"x_min":42,"x_max":417,"o":"m 417 1111 l 417 0 l 333 0 l 333 761 q 297 910 326 849 q 222 1003 267 972 q 125 1035 176 1035 l 125 0 l 42 0 l 42 1111 l 125 1111 q 256 1075 200 1111 q 333 983 311 1039 l 333 1111 l 417 1111 z "},"O":{"ha":1194,"x_min":42,"x_max":1153,"o":"m 597 0 q 319 75 446 0 q 117 277 192 150 q 42 556 42 404 q 117 834 42 707 q 319 1036 192 961 q 597 1111 446 1111 q 876 1036 749 1111 q 1078 834 1003 961 q 1153 556 1153 707 q 1078 277 1153 404 q 876 75 1003 150 q 597 0 749 0 m 597 83 q 835 147 726 83 q 1006 318 943 210 q 1069 556 1069 426 q 1006 793 1069 685 q 835 965 943 901 q 597 1028 726 1028 q 360 965 468 1028 q 188 793 251 901 q 125 556 125 685 q 188 318 125 426 q 360 147 251 210 q 597 83 468 83 m 597 493 q 553 511 571 493 q 535 556 535 529 q 553 600 535 582 q 597 618 571 618 q 642 600 624 618 q 660 556 660 582 q 642 511 660 529 q 597 493 624 493 z "},"P":{"ha":422,"x_min":0,"x_max":381,"o":"m 125 1111 q 317 1022 253 1111 q 381 749 381 933 q 340 510 381 601 q 242 381 300 419 q 125 342 183 342 l 125 0 l 42 0 l 42 342 l 0 342 l 0 418 l 42 418 l 42 1111 l 125 1111 m 125 418 q 248 492 199 418 q 297 749 297 567 q 270 933 297 872 q 206 1011 243 994 q 125 1028 169 1028 l 125 418 z "},"Q":{"ha":1194,"x_min":42,"x_max":1153,"o":"m 1153 556 q 1078 278 1153 406 q 879 76 1004 150 q 1012 12 949 36 q 1153 -19 1075 -12 l 1153 -82 q 1032 -65 1089 -82 q 931 -26 975 -49 q 808 42 888 -3 q 597 0 706 0 q 319 75 446 0 q 117 277 192 150 q 42 556 42 404 q 117 834 42 707 q 319 1036 192 961 q 597 1111 446 1111 q 876 1036 749 1111 q 1078 834 1003 961 q 1153 556 1153 707 m 125 556 q 174 345 125 443 q 307 182 222 247 q 492 229 401 229 q 554 224 526 229 q 677 188 621 213 q 796 126 733 164 q 994 299 919 183 q 1069 556 1069 414 q 1006 793 1069 685 q 835 965 943 901 q 597 1028 726 1028 q 360 965 468 1028 q 188 793 251 901 q 125 556 125 685 m 597 83 q 706 96 654 83 q 546 147 621 135 q 489 151 517 151 q 383 133 433 151 q 597 83 483 83 z "},"R":{"ha":558,"x_min":42,"x_max":517,"o":"m 285 782 q 450 688 383 772 q 517 435 517 604 l 517 0 l 433 0 l 433 435 q 381 646 433 583 q 251 708 328 708 q 195 701 222 708 q 150 682 168 693 l 125 661 l 125 0 l 42 0 l 42 1111 l 163 1111 q 332 1074 283 1111 q 381 953 381 1038 q 356 860 381 901 q 285 782 331 819 m 125 1035 l 125 751 q 152 774 139 764 q 175 792 165 783 q 266 871 235 836 q 297 953 297 906 q 262 1019 297 1004 q 163 1035 226 1035 l 125 1035 z "},"S":{"ha":900,"x_min":42,"x_max":858,"o":"m 858 394 q 803 199 858 290 q 654 54 749 108 q 450 0 560 0 q 245 55 339 0 q 97 203 151 110 q 42 408 42 297 q 43 449 42 435 l 126 449 q 125 408 125 438 q 168 242 125 318 q 285 123 211 167 q 450 79 360 79 q 615 122 540 79 q 732 238 689 165 q 775 394 775 311 q 744 492 775 449 q 667 570 713 536 q 546 651 622 604 q 426 731 471 697 q 350 808 381 764 q 319 904 319 851 q 351 1017 319 969 q 435 1088 383 1064 q 547 1111 488 1111 q 668 1083 611 1111 q 760 1001 725 1056 q 796 869 796 947 l 713 869 q 663 988 713 946 q 547 1031 614 1031 q 445 997 488 1031 q 403 904 403 964 q 449 811 403 853 q 594 707 496 769 q 731 614 679 654 q 821 518 783 574 q 858 394 858 463 z "},"T":{"ha":597,"x_min":42,"x_max":556,"o":"m 556 1111 l 556 1049 l 340 1049 l 340 0 l 257 0 l 257 1049 l 42 1049 l 42 1111 l 556 1111 z "},"U":{"ha":458,"x_min":42,"x_max":417,"o":"m 417 1111 l 417 251 q 396 98 417 153 q 334 22 375 43 q 226 0 293 0 q 120 22 160 0 q 61 97 81 43 q 42 251 42 151 l 42 1111 l 125 1111 l 125 251 q 138 138 125 176 q 173 88 151 100 q 226 76 194 76 q 282 88 260 76 q 319 138 304 100 q 333 251 333 176 l 333 1111 l 417 1111 z "},"V":{"ha":583,"x_min":42,"x_max":542,"o":"m 542 1111 l 292 153 l 42 1111 l 125 1111 l 292 413 l 458 1111 l 542 1111 m 292 104 q 329 89 314 104 q 344 51 344 74 q 329 15 344 29 q 292 0 314 0 q 255 15 269 0 q 240 51 240 29 q 255 89 240 74 q 292 104 269 104 z "},"W":{"ha":764,"x_min":42,"x_max":722,"o":"m 722 1111 l 722 0 l 653 0 q 504 55 575 1 q 382 197 433 108 q 260 55 331 108 q 111 0 189 1 l 42 0 l 42 1111 l 125 1111 l 125 85 q 246 142 186 90 q 346 272 306 193 q 306 476 306 375 q 382 721 306 617 q 458 476 458 617 q 418 272 458 375 q 518 142 458 193 q 639 85 578 90 l 639 1111 l 722 1111 m 382 601 q 367 485 367 546 q 382 365 367 424 q 397 485 397 424 q 382 601 397 546 z "},"X":{"ha":606,"x_min":42,"x_max":564,"o":"m 564 0 l 481 0 l 303 494 l 125 0 l 42 0 l 261 610 l 81 1111 l 164 1111 l 317 688 l 469 1111 l 553 1111 l 358 571 l 564 0 z "},"Y":{"ha":556,"x_min":42,"x_max":514,"o":"m 431 1111 l 514 1111 l 319 493 l 319 0 l 236 0 l 236 493 l 42 1111 l 125 1111 l 278 625 l 431 1111 z "},"Z":{"ha":490,"x_min":42,"x_max":449,"o":"m 449 1111 l 143 63 l 449 63 l 449 0 l 42 0 l 347 1049 l 42 1049 l 42 1111 l 449 1111 z "},"":{"ha":458,"x_min":42,"x_max":417,"o":"m 417 1111 l 417 167 l 333 167 l 333 761 q 297 910 326 849 q 222 1003 267 972 q 125 1035 176 1035 l 125 167 l 42 167 l 42 1111 l 125 1111 q 256 1075 200 1111 q 333 983 311 1039 l 333 1111 l 417 1111 m 42 0 l 42 63 l 417 63 l 417 0 l 42 0 z "},"a":{"ha":458,"x_min":42,"x_max":417,"o":"m 417 972 l 417 0 l 333 0 l 333 668 l 126 625 q 125 526 125 594 l 125 0 l 42 0 l 42 526 q 72 801 42 706 q 165 934 103 897 q 333 972 226 971 l 417 972 m 333 731 l 333 896 q 186 847 231 894 q 131 688 142 800 l 333 731 z "},"b":{"ha":558,"x_min":42,"x_max":517,"o":"m 288 644 q 451 570 385 639 q 517 365 517 501 q 404 74 517 149 q 125 0 292 0 l 42 0 l 42 972 l 163 972 q 332 935 283 972 q 381 814 381 899 q 356 724 381 764 q 288 644 332 683 m 125 896 l 125 613 q 152 635 139 625 q 175 653 165 644 q 266 732 235 697 q 297 814 297 767 q 262 881 297 865 q 163 896 226 896 l 125 896 m 125 83 q 253 98 189 83 q 376 175 318 113 q 433 365 433 238 q 386 526 433 478 q 268 574 339 574 q 204 565 236 574 q 150 543 172 556 l 125 522 l 125 83 z "},"c":{"ha":571,"x_min":42,"x_max":529,"o":"m 529 889 q 326 835 419 889 q 179 688 233 781 q 125 486 125 596 q 179 284 125 376 q 326 138 233 192 q 529 83 419 83 l 529 0 q 285 65 397 0 q 107 242 172 131 q 42 486 42 354 q 107 730 42 618 q 285 907 172 842 q 529 972 397 972 l 529 889 z "},"d":{"ha":654,"x_min":42,"x_max":613,"o":"m 126 972 q 370 906 258 972 q 547 729 482 840 q 613 488 613 618 q 547 244 613 356 q 370 66 482 132 q 126 0 258 0 l 125 0 l 42 0 l 42 972 l 125 972 l 126 972 m 126 83 q 332 137 240 83 q 476 282 424 190 q 529 488 529 374 q 476 692 529 600 q 331 836 424 783 q 126 889 239 889 l 125 889 l 125 83 l 126 83 z "},"e":{"ha":458,"x_min":42,"x_max":417,"o":"m 417 910 l 125 910 l 125 740 l 347 740 l 347 678 l 125 678 l 125 63 l 417 63 l 417 0 l 42 0 l 42 972 l 417 972 l 417 910 z "},"f":{"ha":458,"x_min":42,"x_max":417,"o":"m 417 896 q 269 885 321 896 q 185 842 217 875 q 140 740 154 810 l 347 740 l 347 678 l 131 678 q 125 517 125 618 l 125 394 l 125 0 l 42 0 l 42 394 l 42 517 q 75 815 42 719 q 185 941 108 910 q 417 972 261 972 l 417 896 z "},"g":{"ha":654,"x_min":42,"x_max":613,"o":"m 613 0 l 529 0 q 285 65 397 0 q 107 242 172 131 q 42 486 42 354 q 107 730 42 618 q 285 907 172 842 q 529 972 397 972 l 529 889 q 326 835 419 889 q 179 688 233 781 q 125 486 125 596 q 179 284 125 376 q 326 138 233 192 q 529 83 419 83 l 529 224 l 371 224 l 371 300 l 613 300 l 613 0 z "},"h":{"ha":458,"x_min":42,"x_max":417,"o":"m 333 972 l 417 972 l 417 0 l 333 0 l 333 668 l 125 624 l 125 0 l 42 0 l 42 972 l 125 972 l 125 686 l 333 731 l 333 972 z "},"i":{"ha":188,"x_min":42,"x_max":146,"o":"m 93 868 q 56 883 71 868 q 42 919 42 897 q 56 957 42 942 q 93 972 71 972 q 131 957 115 972 q 146 919 146 942 q 131 883 146 897 q 93 868 115 868 m 136 819 l 136 0 l 53 0 l 53 819 l 136 819 z "},"j":{"ha":353,"x_min":42,"x_max":311,"o":"m 311 572 q 297 231 311 342 q 226 60 283 119 q 42 0 169 0 l 42 76 q 166 119 126 76 q 217 244 206 163 q 228 485 228 326 l 228 619 l 228 910 l 128 910 l 128 972 l 311 972 l 311 619 l 311 572 z "},"k":{"ha":413,"x_min":42,"x_max":371,"o":"m 371 0 l 288 0 l 185 583 l 125 439 l 125 0 l 42 0 l 42 972 l 125 972 l 125 643 l 260 972 l 343 972 l 242 724 l 371 0 z "},"l":{"ha":436,"x_min":42,"x_max":394,"o":"m 125 63 l 394 63 l 394 0 l 42 0 l 42 972 l 125 972 l 125 63 z "},"m":{"ha":722,"x_min":42,"x_max":681,"o":"m 500 972 q 640 910 600 972 q 681 717 681 849 l 681 0 l 597 0 l 597 717 q 593 803 597 768 q 567 867 589 839 q 500 896 546 896 q 433 867 454 896 q 407 803 411 839 q 403 717 403 768 l 403 0 l 319 0 l 319 717 q 315 803 319 768 q 290 867 311 839 q 222 896 268 896 q 155 867 176 896 q 129 803 133 839 q 125 717 125 768 l 125 0 l 42 0 l 42 717 q 82 910 42 849 q 222 972 122 972 q 361 913 319 972 q 500 972 403 972 z "},"n":{"ha":444,"x_min":42,"x_max":403,"o":"m 222 972 q 363 910 322 972 q 403 717 403 849 l 403 0 l 319 0 l 319 717 q 315 803 319 768 q 290 867 311 839 q 222 896 268 896 q 155 867 176 896 q 129 803 133 839 q 125 717 125 768 l 125 0 l 42 0 l 42 717 q 82 910 42 849 q 222 972 122 972 z "},"o":{"ha":1056,"x_min":42,"x_max":1014,"o":"m 529 0 q 285 65 397 0 q 107 242 172 131 q 42 486 42 354 q 107 730 42 618 q 285 907 172 842 q 529 972 397 972 q 772 907 660 972 q 949 730 883 842 q 1014 486 1014 618 q 949 242 1014 354 q 772 65 883 131 q 529 0 661 0 m 529 83 q 731 138 639 83 q 876 284 822 192 q 931 486 931 376 q 876 688 931 596 q 730 835 822 781 q 529 889 638 889 q 326 835 419 889 q 179 688 233 781 q 125 486 125 596 q 179 284 125 376 q 326 138 233 192 q 529 83 419 83 z "},"p":{"ha":422,"x_min":42,"x_max":381,"o":"m 381 703 q 355 592 381 638 q 292 517 329 546 q 197 454 256 489 q 125 407 147 424 l 125 0 l 42 0 l 42 972 l 163 972 q 381 703 381 972 m 125 494 q 167 521 133 500 q 235 567 210 546 q 279 621 261 588 q 297 703 297 654 q 271 822 297 779 q 214 881 244 865 q 163 896 183 896 l 125 896 l 125 494 z "},"q":{"ha":1056,"x_min":42,"x_max":1014,"o":"m 1014 486 q 954 253 1014 361 q 792 78 894 146 q 567 1 690 11 l 567 -64 l 844 -64 l 844 -133 l 490 -133 l 490 1 q 264 78 367 11 q 101 253 161 146 q 42 486 42 361 q 107 730 42 618 q 285 907 172 842 q 529 972 397 972 q 772 907 660 972 q 949 730 883 842 q 1014 486 1014 618 m 125 486 q 174 294 125 383 q 306 150 222 206 q 490 85 389 94 l 490 353 l 567 353 l 567 85 q 751 150 668 94 q 883 294 835 206 q 931 486 931 383 q 876 688 931 596 q 730 835 822 781 q 529 889 638 889 q 326 835 419 889 q 179 688 233 781 q 125 486 125 596 z "},"r":{"ha":468,"x_min":42,"x_max":426,"o":"m 282 640 q 387 552 347 625 q 426 338 426 479 l 426 0 l 343 0 l 343 338 q 311 519 343 465 q 229 572 279 572 q 161 551 197 572 l 125 522 l 125 0 l 42 0 l 42 972 l 163 972 q 332 935 283 972 q 381 814 381 899 q 354 721 381 763 q 282 640 328 679 m 125 896 l 125 613 q 152 635 139 625 q 175 653 165 644 q 266 732 235 697 q 297 814 297 767 q 262 881 297 865 q 163 896 226 896 l 125 896 z "},"s":{"ha":367,"x_min":42,"x_max":325,"o":"m 42 83 q 182 133 122 83 q 242 288 242 182 q 217 399 242 349 q 143 518 192 450 q 67 644 93 592 q 42 763 42 697 q 78 872 42 825 q 178 946 114 919 q 325 972 243 972 l 325 889 q 181 854 236 889 q 125 763 125 819 q 148 663 125 708 q 218 550 171 617 q 299 416 272 472 q 325 288 325 360 q 285 128 325 193 q 180 32 244 64 q 42 0 115 0 l 42 83 z "},"t":{"ha":597,"x_min":42,"x_max":556,"o":"m 556 972 l 556 910 l 340 910 l 340 0 l 257 0 l 257 910 l 42 910 l 42 972 l 556 972 z "},"u":{"ha":458,"x_min":42,"x_max":417,"o":"m 417 972 l 417 0 l 333 0 q 178 22 242 0 q 78 103 115 43 q 42 272 42 163 l 42 972 l 125 972 l 125 272 q 160 142 125 183 q 235 92 194 100 q 333 83 276 83 l 333 972 l 417 972 z "},"v":{"ha":472,"x_min":42,"x_max":431,"o":"m 431 972 l 431 439 q 383 190 431 289 q 267 47 335 92 q 140 0 200 1 l 126 0 l 42 972 l 125 972 l 200 103 q 303 215 260 135 q 347 439 347 296 l 347 972 l 431 972 z "},"w":{"ha":722,"x_min":42,"x_max":681,"o":"m 681 972 l 681 256 q 640 62 681 124 q 500 0 600 0 q 361 60 403 0 q 222 0 319 0 q 82 62 122 0 q 42 256 42 124 l 42 972 l 125 972 l 125 256 q 129 169 125 204 q 155 105 133 133 q 222 76 176 76 q 290 105 268 76 q 315 169 311 133 q 319 256 319 204 l 319 972 l 403 972 l 403 256 q 407 169 403 204 q 433 105 411 133 q 500 76 454 76 q 567 105 546 76 q 593 169 589 133 q 597 256 597 204 l 597 972 l 681 972 z "},"x":{"ha":692,"x_min":42,"x_max":650,"o":"m 650 886 q 518 844 578 889 q 423 708 458 799 q 388 488 388 617 q 423 265 388 357 q 517 128 458 174 q 650 86 576 83 l 650 0 q 471 63 551 0 q 346 240 390 126 q 221 63 301 126 q 42 0 140 0 l 42 86 q 174 128 115 83 q 269 265 233 174 q 304 488 304 357 q 269 708 304 617 q 174 844 233 799 q 42 886 114 889 l 42 972 q 221 910 140 972 q 346 733 301 847 q 471 910 390 847 q 650 972 551 972 l 650 886 z "},"y":{"ha":458,"x_min":42,"x_max":417,"o":"m 417 972 l 417 597 q 381 414 417 469 q 271 349 346 358 l 271 0 l 188 0 l 188 347 q 76 411 111 356 q 42 597 42 467 l 42 972 l 125 972 l 125 597 q 138 486 125 522 q 172 440 151 450 q 226 429 193 429 q 283 440 261 429 q 319 486 304 450 q 333 597 333 522 l 333 972 l 417 972 z "},"z":{"ha":490,"x_min":42,"x_max":449,"o":"m 449 972 l 146 63 l 449 63 l 449 0 l 42 0 l 344 910 l 42 910 l 42 972 l 449 972 z "},"":{"ha":1029,"x_min":42,"x_max":988,"o":"m 597 0 q 319 75 446 0 q 117 277 192 150 q 42 556 42 404 q 117 834 42 707 q 319 1036 192 961 q 597 1111 446 1111 q 810 1069 710 1111 q 988 950 911 1026 l 925 897 q 776 994 861 960 q 597 1028 692 1028 q 360 965 468 1028 q 188 793 251 901 q 125 556 125 685 q 188 318 125 426 q 360 147 251 210 q 597 83 468 83 q 763 113 685 83 q 904 196 842 142 l 969 143 q 799 38 894 75 q 597 0 703 0 m 613 231 q 451 274 525 231 q 333 392 376 318 q 290 556 290 467 q 333 719 290 644 q 451 837 376 793 q 613 881 525 881 q 774 837 700 881 q 892 719 849 793 q 935 556 935 644 q 892 392 935 467 q 774 274 849 318 q 613 231 700 231 m 613 310 q 736 342 681 310 q 824 431 792 375 q 856 556 856 488 q 824 680 856 624 q 736 769 792 736 q 613 801 681 801 q 489 769 544 801 q 401 680 433 736 q 369 556 369 624 q 401 431 369 488 q 489 342 433 375 q 613 310 544 310 m 613 499 q 572 515 589 499 q 556 556 556 532 q 572 596 556 579 q 613 613 589 613 q 653 596 636 613 q 669 556 669 579 q 653 515 669 532 q 613 499 636 499 z "},"":{"ha":699,"x_min":0,"x_max":657,"o":"m 125 1049 l 125 879 l 356 879 l 356 251 q 369 138 356 176 q 403 88 382 100 q 457 76 425 76 q 513 88 490 76 q 549 138 535 100 q 564 251 564 176 l 564 972 l 647 972 l 647 251 q 626 98 647 153 q 565 22 606 43 q 457 0 524 0 q 351 22 390 0 q 292 97 311 43 q 272 251 272 151 l 272 817 l 125 817 l 125 0 l 42 0 l 42 817 l 0 817 l 0 879 l 42 879 l 42 1111 l 657 1111 l 657 1049 l 125 1049 z "},"":{"ha":446,"x_min":42,"x_max":404,"o":"m 394 896 q 261 883 310 894 q 183 839 213 872 q 140 740 154 806 l 264 740 l 264 678 l 131 678 q 125 517 125 618 l 125 394 l 125 0 l 42 0 l 42 394 l 42 517 q 73 809 42 714 q 177 938 104 904 q 394 972 250 971 l 394 896 m 351 751 q 315 766 329 751 q 300 803 300 781 q 315 840 300 825 q 351 856 329 856 q 389 840 374 856 q 404 803 404 825 q 389 766 404 781 q 351 751 374 751 m 311 0 l 311 703 l 394 703 l 394 0 l 311 0 z "},"":{"ha":706,"x_min":42,"x_max":664,"o":"m 394 896 q 261 883 310 894 q 183 839 213 872 q 140 740 154 806 l 264 740 l 264 678 l 131 678 q 125 517 125 618 l 125 394 l 125 0 l 42 0 l 42 394 l 42 517 q 73 809 42 714 q 177 938 104 904 q 394 972 250 971 l 394 896 m 394 63 l 664 63 l 664 0 l 311 0 l 311 819 l 394 819 l 394 63 z "},".":{"ha":208,"x_min":42,"x_max":167,"o":"m 104 0 q 60 18 78 0 q 42 63 42 36 q 60 107 42 89 q 104 125 78 125 q 149 107 131 125 q 167 63 167 89 q 149 18 167 36 q 104 0 131 0 z "},",":{"ha":214,"x_min":42,"x_max":172,"o":"m 172 89 q 142 8 171 47 q 83 -53 114 -32 l 42 -53 q 78 11 67 -22 q 89 89 90 44 l 172 89 z "},":":{"ha":208,"x_min":42,"x_max":167,"o":"m 104 588 q 60 606 78 588 q 42 650 42 624 q 60 694 42 676 q 104 713 78 713 q 149 694 131 713 q 167 650 167 676 q 149 606 167 624 q 104 588 131 588 m 104 274 q 60 292 78 274 q 42 336 42 310 q 60 381 42 363 q 104 399 78 399 q 149 381 131 399 q 167 336 167 363 q 149 292 167 310 q 104 274 131 274 z "},";":{"ha":235,"x_min":42,"x_max":193,"o":"m 131 574 q 86 592 104 574 q 68 636 68 610 q 86 681 68 663 q 131 699 104 699 q 175 681 157 699 q 193 636 193 663 q 175 592 193 610 q 131 574 157 574 m 172 381 q 142 299 171 339 q 83 239 114 260 l 42 239 q 78 303 67 269 q 89 381 90 336 l 172 381 z "},"…":{"ha":208,"x_min":42,"x_max":167,"o":"m 104 125 q 149 107 131 125 q 167 63 167 89 q 149 18 167 36 q 104 0 131 0 q 60 18 78 0 q 42 63 42 36 q 60 107 42 89 q 104 125 78 125 z "},"!":{"ha":208,"x_min":42,"x_max":167,"o":"m 63 1111 l 146 1111 l 132 208 l 76 208 l 63 1111 m 104 0 q 60 18 78 0 q 42 63 42 36 q 60 107 42 89 q 104 125 78 125 q 149 107 131 125 q 167 63 167 89 q 149 18 167 36 q 104 0 131 0 z "},"?":{"ha":500,"x_min":42,"x_max":458,"o":"m 251 1028 q 162 992 199 1028 q 125 904 125 956 l 42 904 q 69 1008 42 961 q 146 1083 97 1056 q 251 1111 194 1111 q 355 1083 307 1111 q 431 1008 403 1056 q 458 904 458 961 q 427 746 458 821 q 335 564 396 671 q 237 369 269 449 q 204 194 204 289 l 149 194 q 181 394 149 304 q 274 603 213 483 q 350 766 325 700 q 375 904 375 832 q 339 992 375 956 q 251 1028 303 1028 m 181 125 q 225 107 207 125 q 243 63 243 89 q 225 18 243 36 q 181 0 207 0 q 136 18 154 0 q 118 63 118 36 q 136 107 118 89 q 181 125 154 125 z "},"·":{"ha":219,"x_min":42,"x_max":178,"o":"m 110 415 q 158 395 138 415 q 178 347 178 375 q 158 299 178 319 q 110 279 138 279 q 62 299 82 279 q 42 347 42 319 q 62 395 42 375 q 110 415 82 415 z "},"•":{"ha":278,"x_min":42,"x_max":236,"o":"m 139 444 q 208 416 179 444 q 236 347 236 388 q 208 278 236 307 q 139 250 179 250 q 70 278 99 250 q 42 347 42 307 q 70 416 42 388 q 139 444 99 444 z "},"*":{"ha":374,"x_min":42,"x_max":332,"o":"m 332 951 l 308 894 l 219 926 l 229 829 l 167 824 l 157 922 l 69 879 l 42 933 l 136 981 l 68 1051 l 114 1094 l 185 1019 l 253 1094 l 300 1053 l 238 985 l 332 951 z "},"#":{"ha":758,"x_min":42,"x_max":717,"o":"m 703 713 l 575 713 l 511 461 l 653 461 l 639 399 l 496 399 l 393 0 l 310 0 l 413 399 l 246 399 l 143 0 l 60 0 l 163 399 l 42 399 l 56 461 l 178 461 l 242 713 l 106 713 l 119 775 l 258 775 l 344 1111 l 428 1111 l 342 775 l 508 775 l 594 1111 l 678 1111 l 592 775 l 717 775 l 703 713 m 428 461 l 492 713 l 325 713 l 261 461 l 428 461 z "},"/":{"ha":533,"x_min":42,"x_max":492,"o":"m 492 1183 l 111 -142 l 42 -142 l 422 1183 l 492 1183 z "},"\\":{"ha":547,"x_min":42,"x_max":506,"o":"m 506 -142 l 422 -142 l 42 1183 l 125 1183 l 506 -142 z "},"(":{"ha":386,"x_min":42,"x_max":344,"o":"m 42 554 q 89 868 42 719 q 207 1113 136 1017 q 344 1228 278 1210 l 344 1179 q 250 1065 301 1150 q 162 848 199 981 q 125 554 125 715 q 162 260 125 393 q 250 43 199 128 q 344 -71 301 -42 l 344 -119 q 207 -5 278 -101 q 89 240 136 92 q 42 554 42 389 z "},")":{"ha":386,"x_min":42,"x_max":344,"o":"m 344 554 q 297 240 344 389 q 179 -5 250 92 q 42 -119 108 -101 l 42 -71 q 136 43 85 -42 q 224 260 188 128 q 261 554 261 393 q 224 848 261 715 q 136 1065 188 981 q 42 1179 85 1150 l 42 1228 q 179 1113 108 1210 q 297 868 250 1017 q 344 554 344 719 z "},"{":{"ha":367,"x_min":42,"x_max":325,"o":"m 325 1185 q 280 1155 294 1185 q 260 1047 265 1125 q 257 954 257 1017 l 258 815 q 240 646 258 708 q 165 569 221 583 q 240 494 221 556 q 258 326 258 432 l 257 185 q 260 92 257 122 q 280 -16 265 14 q 325 -46 294 -46 l 325 -87 q 239 -58 269 -87 q 196 34 208 -28 q 183 201 183 96 l 183 271 q 175 422 183 364 q 135 515 167 479 q 42 550 104 550 l 42 589 q 135 624 104 589 q 175 717 167 660 q 183 868 183 775 l 183 938 q 196 1105 183 1043 q 239 1197 208 1167 q 325 1226 269 1226 l 325 1185 z "},"}":{"ha":367,"x_min":42,"x_max":325,"o":"m 183 868 q 192 717 183 775 q 231 624 200 660 q 325 589 263 589 l 325 550 q 231 515 263 550 q 192 422 200 479 q 183 271 183 364 l 183 201 q 171 34 183 96 q 128 -58 158 -28 q 42 -87 97 -87 l 42 -46 q 87 -16 72 -46 q 107 92 101 14 q 110 185 110 122 l 108 324 q 127 493 108 431 q 201 569 146 556 q 127 645 146 583 q 108 813 108 707 l 110 954 q 107 1047 110 1017 q 87 1155 101 1125 q 42 1185 72 1185 l 42 1226 q 128 1197 97 1226 q 171 1105 158 1167 q 183 938 183 1043 l 183 868 z "},"[":{"ha":261,"x_min":42,"x_max":219,"o":"m 219 1165 l 125 1165 l 125 -26 l 219 -26 l 219 -89 l 42 -89 l 42 1228 l 219 1228 l 219 1165 z "},"]":{"ha":261,"x_min":42,"x_max":219,"o":"m 219 1228 l 219 -89 l 42 -89 l 42 -26 l 136 -26 l 136 1165 l 42 1165 l 42 1228 l 219 1228 z "},"-":{"ha":396,"x_min":42,"x_max":354,"o":"m 354 589 l 354 526 l 42 526 l 42 589 l 354 589 z "},"­":{"ha":396,"x_min":42,"x_max":354,"o":"m 354 589 l 354 526 l 42 526 l 42 589 l 354 589 z "},"–":{"ha":451,"x_min":42,"x_max":410,"o":"m 410 589 l 410 526 l 42 526 l 42 589 l 410 589 z "},"—":{"ha":599,"x_min":42,"x_max":557,"o":"m 557 589 l 557 526 l 42 526 l 42 589 l 557 589 z "},"_":{"ha":456,"x_min":42,"x_max":414,"o":"m 414 -26 l 414 -89 l 42 -89 l 42 -26 l 414 -26 z "},"‚":{"ha":214,"x_min":42,"x_max":172,"o":"m 172 89 q 142 8 171 47 q 83 -53 114 -32 l 42 -53 q 78 11 67 -22 q 89 89 90 44 l 172 89 z "},"„":{"ha":214,"x_min":42,"x_max":172,"o":"m 172 89 q 142 8 171 47 q 83 -53 114 -32 l 42 -53 q 78 11 67 -22 q 89 89 90 44 l 172 89 z "},"“":{"ha":325,"x_min":42,"x_max":283,"o":"m 42 1011 q 131 1153 63 1100 l 172 1153 q 142 1096 151 1124 q 125 1011 133 1068 l 42 1011 m 153 1011 q 242 1153 174 1100 l 283 1153 q 253 1096 263 1124 q 236 1011 244 1068 l 153 1011 z "},"”":{"ha":325,"x_min":42,"x_max":283,"o":"m 172 1153 q 83 1011 151 1064 l 42 1011 q 72 1068 63 1040 q 89 1153 81 1096 l 172 1153 m 283 1153 q 194 1011 263 1064 l 153 1011 q 183 1068 174 1040 q 200 1153 192 1096 l 283 1153 z "},"‘":{"ha":214,"x_min":42,"x_max":172,"o":"m 42 1011 q 131 1153 63 1100 l 172 1153 q 142 1096 151 1124 q 125 1011 133 1068 l 42 1011 z "},"’":{"ha":214,"x_min":42,"x_max":172,"o":"m 172 1153 q 83 1011 151 1064 l 42 1011 q 72 1068 63 1040 q 89 1153 81 1096 l 172 1153 z "},"«":{"ha":658,"x_min":42,"x_max":617,"o":"m 276 625 l 394 625 l 160 461 l 394 283 l 276 283 l 42 461 l 276 625 m 499 625 l 617 625 l 382 461 l 617 283 l 499 283 l 264 461 l 499 625 z "},"»":{"ha":658,"x_min":42,"x_max":617,"o":"m 160 283 l 42 283 l 276 461 l 42 625 l 160 625 l 394 461 l 160 283 m 382 283 l 264 283 l 499 461 l 264 625 l 382 625 l 617 461 l 382 283 z "},"‹":{"ha":436,"x_min":42,"x_max":394,"o":"m 276 625 l 394 625 l 160 461 l 394 283 l 276 283 l 42 461 l 276 625 z "},"›":{"ha":436,"x_min":42,"x_max":394,"o":"m 160 283 l 42 283 l 276 461 l 42 625 l 160 625 l 394 461 l 160 283 z "},"\"":{"ha":315,"x_min":42,"x_max":274,"o":"m 163 1153 q 83 1011 142 1057 l 42 1011 q 65 1056 58 1035 q 75 1119 71 1078 l 79 1153 l 163 1153 m 274 1153 q 194 1011 253 1057 l 153 1011 q 176 1056 169 1035 q 186 1119 182 1078 l 190 1153 l 274 1153 z "},"'":{"ha":204,"x_min":42,"x_max":163,"o":"m 163 1153 q 83 1011 142 1057 l 42 1011 q 65 1056 58 1035 q 75 1119 71 1078 l 79 1153 l 163 1153 z "}," ":{"ha":278,"x_min":0,"x_max":0,"o":""},"¢":{"ha":406,"x_min":42,"x_max":364,"o":"m 364 801 q 247 771 303 801 q 154 685 190 740 q 118 556 118 629 q 154 426 118 482 q 247 340 190 371 q 364 310 303 310 l 364 233 q 292 242 326 233 l 292 6 l 236 6 l 236 260 q 95 378 149 297 q 42 556 42 458 q 95 733 42 653 q 236 851 149 814 l 236 1086 l 292 1086 l 292 869 q 364 878 326 878 l 364 801 z "},"¤":{"ha":444,"x_min":42,"x_max":403,"o":"m 403 515 q 358 392 403 443 l 390 354 l 347 321 l 315 360 q 221 336 271 336 q 125 361 169 336 l 90 321 l 53 353 l 86 393 q 42 515 42 440 q 85 636 42 589 l 50 678 l 93 711 l 126 671 q 222 694 171 694 q 321 668 278 694 l 356 711 l 393 679 l 358 639 q 403 515 403 588 m 118 515 q 149 435 118 464 q 222 406 181 406 q 296 435 265 406 q 326 515 326 464 q 296 597 326 568 q 222 625 265 625 q 149 596 181 625 q 118 515 118 567 z "},"$":{"ha":401,"x_min":42,"x_max":360,"o":"m 360 1028 q 178 983 231 1028 q 125 849 125 938 q 152 731 125 789 q 235 579 179 672 q 328 406 297 478 q 360 256 360 335 q 324 130 360 182 q 229 46 289 78 l 229 -147 l 174 -147 l 174 22 q 42 0 108 0 l 42 83 q 140 100 85 83 q 235 156 194 117 q 276 256 276 194 q 248 385 276 322 q 163 539 219 449 q 72 705 103 636 q 42 849 42 774 q 72 994 42 936 q 174 1081 103 1051 l 174 1256 l 229 1256 l 229 1099 q 360 1111 285 1111 l 360 1028 z "},"€":{"ha":639,"x_min":-28,"x_max":597,"o":"m 597 1028 q 381 976 481 1028 q 215 833 281 924 q 131 632 149 743 l 331 632 l 331 576 l 125 576 l 125 556 l 125 535 l 331 535 l 331 479 l 131 479 q 215 278 149 368 q 381 135 281 188 q 597 83 481 83 l 597 0 q 340 63 460 0 q 143 235 221 126 q 47 479 65 344 l -28 479 l -28 535 l 42 535 l 42 556 l 42 576 l -28 576 l -28 632 l 47 632 q 143 876 65 767 q 340 1048 221 985 q 597 1111 460 1111 l 597 1028 z "},"ƒ":{"ha":721,"x_min":42,"x_max":763,"o":"m 626 1111 q 699 1094 668 1111 q 745 1050 729 1076 q 763 999 761 1024 l 679 999 q 604 1042 674 1042 q 518 997 551 1042 q 467 874 485 951 q 429 668 449 797 q 424 629 426 640 l 567 629 l 567 581 l 418 581 q 369 263 392 374 q 299 76 347 151 q 164 0 250 0 q 74 35 104 0 q 42 113 43 69 l 111 113 q 129 79 117 89 q 164 69 142 69 q 241 140 210 69 q 291 311 272 210 q 333 581 310 413 l 243 581 l 243 629 l 340 629 l 346 668 q 405 940 372 846 q 489 1073 438 1035 q 626 1111 540 1111 z "},"£":{"ha":626,"x_min":42,"x_max":585,"o":"m 233 544 q 264 317 264 411 q 192 69 264 175 l 529 69 l 529 0 l 42 0 q 148 169 117 92 q 179 325 179 246 q 172 417 179 369 q 146 544 164 464 l 47 544 l 47 600 l 133 600 l 125 636 q 117 675 122 651 q 107 729 113 699 q 96 836 96 792 q 131 992 96 931 q 223 1083 167 1054 q 342 1111 279 1111 q 485 1081 428 1111 q 585 989 543 1050 l 522 936 q 443 1007 486 986 q 342 1028 400 1028 q 223 983 269 1028 q 176 842 176 939 q 190 729 176 790 l 219 600 l 392 600 l 392 544 l 233 544 z "},"¥":{"ha":556,"x_min":42,"x_max":514,"o":"m 514 1111 l 342 563 l 449 563 l 449 507 l 324 507 l 319 493 l 319 465 l 449 465 l 449 410 l 319 410 l 319 0 l 236 0 l 236 410 l 118 410 l 118 465 l 236 465 l 236 493 l 232 507 l 118 507 l 118 563 l 214 563 l 42 1111 l 125 1111 l 278 625 l 431 1111 l 514 1111 z "},"+":{"ha":451,"x_min":42,"x_max":410,"o":"m 410 528 l 410 458 l 261 458 l 261 281 l 192 281 l 192 458 l 42 458 l 42 528 l 192 528 l 192 704 l 261 704 l 261 528 l 410 528 z "},"−":{"ha":424,"x_min":42,"x_max":382,"o":"m 382 528 l 382 458 l 42 458 l 42 528 l 382 528 z "},"×":{"ha":419,"x_min":42,"x_max":378,"o":"m 378 626 l 257 493 l 378 358 l 325 311 l 210 439 l 94 311 l 42 358 l 163 493 l 42 626 l 94 674 l 210 546 l 325 674 l 378 626 z "},"÷":{"ha":465,"x_min":42,"x_max":424,"o":"m 233 588 q 189 606 207 588 q 171 650 171 624 q 189 694 171 676 q 233 713 207 713 q 278 694 260 713 q 296 650 296 676 q 278 606 296 624 q 233 588 260 588 m 424 528 l 424 458 l 42 458 l 42 528 l 424 528 m 233 274 q 189 292 207 274 q 171 336 171 310 q 189 381 171 363 q 233 399 207 399 q 278 381 260 399 q 296 336 296 363 q 278 292 296 310 q 233 274 260 274 z "},"=":{"ha":396,"x_min":42,"x_max":354,"o":"m 354 581 l 354 518 l 42 518 l 42 581 l 354 581 m 354 469 l 354 407 l 42 407 l 42 469 l 354 469 z "},"≠":{"ha":483,"x_min":42,"x_max":442,"o":"m 442 518 l 283 518 l 261 469 l 442 469 l 442 407 l 232 407 l 131 193 l 75 193 l 176 407 l 42 407 l 42 469 l 206 469 l 228 518 l 42 518 l 42 581 l 257 581 l 358 794 l 414 794 l 313 581 l 442 581 l 442 518 z "},">":{"ha":610,"x_min":42,"x_max":568,"o":"m 42 711 l 568 564 l 568 450 l 42 303 l 42 386 l 474 507 l 42 628 l 42 711 z "},"<":{"ha":610,"x_min":42,"x_max":568,"o":"m 568 711 l 568 628 l 136 507 l 568 386 l 568 303 l 42 450 l 42 564 l 568 711 z "},"≥":{"ha":610,"x_min":42,"x_max":568,"o":"m 42 711 l 568 564 l 568 450 l 42 303 l 42 386 l 474 507 l 42 628 l 42 711 m 42 190 l 42 260 l 568 260 l 568 190 l 42 190 z "},"≤":{"ha":610,"x_min":42,"x_max":568,"o":"m 568 711 l 568 628 l 136 507 l 568 386 l 568 303 l 42 450 l 42 564 l 568 711 m 42 190 l 42 260 l 568 260 l 568 190 l 42 190 z "},"±":{"ha":451,"x_min":42,"x_max":410,"o":"m 261 549 l 410 549 l 410 479 l 261 479 l 261 301 l 192 301 l 192 479 l 42 479 l 42 549 l 192 549 l 192 725 l 261 725 l 261 549 m 42 190 l 42 260 l 410 260 l 410 190 l 42 190 z "},"≈":{"ha":489,"x_min":42,"x_max":447,"o":"m 42 394 q 69 493 42 456 q 150 531 96 531 q 193 525 174 531 q 243 508 213 519 q 339 485 296 485 q 392 503 378 485 q 406 538 406 522 l 447 538 q 420 439 447 476 q 339 401 393 401 q 292 407 313 401 q 238 425 272 413 q 190 442 208 436 q 150 447 172 447 q 97 428 111 447 q 83 394 83 410 l 42 394 m 42 242 q 69 340 42 303 q 150 378 96 378 q 193 372 174 378 q 243 356 213 367 q 339 332 296 332 q 392 351 378 332 q 406 385 406 369 l 447 385 q 420 286 447 324 q 339 249 393 249 q 292 254 313 249 q 238 272 272 260 q 190 289 208 283 q 150 294 172 294 q 97 276 111 294 q 83 242 83 257 l 42 242 z "},"~":{"ha":489,"x_min":42,"x_max":447,"o":"m 42 331 q 69 429 42 392 q 150 467 96 467 q 193 461 174 467 q 243 444 213 456 q 339 421 296 421 q 392 440 378 421 q 406 474 406 458 l 447 474 q 420 375 447 413 q 339 338 393 338 q 292 343 313 338 q 238 361 272 349 q 190 378 208 372 q 150 383 172 383 q 97 365 111 383 q 83 331 83 346 l 42 331 z "},"¬":{"ha":564,"x_min":42,"x_max":522,"o":"m 42 549 l 522 549 l 522 336 l 460 336 l 460 472 l 42 472 l 42 549 z "},"^":{"ha":353,"x_min":42,"x_max":311,"o":"m 311 833 l 228 833 l 176 986 l 125 833 l 42 833 l 135 1111 l 218 1111 l 311 833 z "},"∏":{"ha":518,"x_min":42,"x_max":476,"o":"m 476 1111 l 476 1028 l 400 1028 l 400 0 l 338 0 l 338 1028 l 181 1028 l 181 0 l 118 0 l 118 1028 l 42 1028 l 42 1111 l 476 1111 z "},"∑":{"ha":522,"x_min":42,"x_max":481,"o":"m 481 1124 l 481 1040 l 156 1040 l 318 549 l 156 57 l 481 57 l 481 -26 l 42 -26 l 235 549 l 42 1124 l 481 1124 z "},"√":{"ha":649,"x_min":42,"x_max":732,"o":"m 732 1243 l 732 1201 l 479 1201 l 219 0 l 133 0 l 42 565 l 125 565 l 197 121 l 440 1243 l 732 1243 z "},"∂":{"ha":560,"x_min":42,"x_max":518,"o":"m 42 424 q 74 636 42 539 q 160 790 106 733 q 282 846 215 846 q 361 815 322 846 q 415 746 400 785 q 371 879 403 817 q 301 983 339 942 q 233 1035 264 1024 l 233 1111 q 448 859 378 1044 q 518 424 518 674 q 487 210 518 307 q 402 56 456 113 q 282 0 349 0 q 159 56 214 0 q 73 210 104 113 q 42 424 42 307 m 125 424 q 147 255 125 333 q 206 130 169 176 q 282 83 242 83 q 356 129 321 83 q 413 253 392 175 q 435 424 435 332 q 391 680 435 597 q 282 763 347 763 q 206 716 242 763 q 147 592 169 669 q 125 424 125 514 z "},"%":{"ha":713,"x_min":42,"x_max":671,"o":"m 583 1183 l 175 -142 l 106 -142 l 514 1183 l 583 1183 m 188 617 q 114 650 147 617 q 61 740 81 683 q 42 865 42 797 q 61 989 42 932 q 114 1078 81 1046 q 188 1111 147 1111 q 261 1078 228 1111 q 313 989 294 1046 q 332 865 332 932 q 313 740 332 797 q 261 650 294 683 q 188 617 228 617 m 188 694 q 236 745 218 694 q 254 865 254 796 q 236 983 254 933 q 188 1033 218 1033 q 138 983 157 1033 q 119 865 119 933 q 138 745 119 796 q 188 694 157 694 m 526 0 q 453 33 486 0 q 400 124 419 67 q 381 249 381 181 q 400 372 381 315 q 453 462 419 429 q 526 494 486 494 q 600 462 567 494 q 652 372 633 429 q 671 249 671 315 q 652 124 671 181 q 600 33 633 67 q 526 0 567 0 m 526 78 q 575 128 557 78 q 593 249 593 179 q 575 367 593 317 q 526 417 557 417 q 477 367 496 417 q 458 249 458 317 q 477 128 458 179 q 526 78 496 78 z "},"◊":{"ha":365,"x_min":42,"x_max":324,"o":"m 221 942 l 324 542 l 221 142 l 144 142 l 42 542 l 144 942 l 221 942 m 183 290 l 247 542 l 183 793 l 118 542 l 183 290 z "},"@":{"ha":896,"x_min":42,"x_max":854,"o":"m 471 856 q 683 788 596 856 q 812 614 769 721 q 854 388 854 507 q 823 197 854 286 q 731 54 792 108 q 586 0 669 0 l 540 0 l 540 251 l 388 193 l 388 0 l 311 0 l 311 447 q 350 638 311 574 q 464 703 389 703 q 578 638 539 703 q 617 447 617 574 l 617 74 q 731 182 689 92 q 774 388 774 272 q 741 574 774 486 q 640 717 708 661 q 471 772 572 772 q 276 712 356 772 q 158 553 197 651 q 119 343 119 456 q 155 141 119 236 q 257 -13 190 46 q 414 -72 324 -72 l 568 -72 l 568 -142 l 414 -142 q 212 -74 296 -142 q 85 103 128 -7 q 42 339 42 214 q 90 590 42 472 q 236 782 139 708 q 471 856 333 856 m 540 314 l 540 447 q 526 574 540 522 q 464 626 513 626 q 401 574 415 626 q 388 447 388 522 l 388 256 l 540 314 z "},"&":{"ha":547,"x_min":42,"x_max":547,"o":"m 547 713 l 506 713 l 506 0 l 422 0 l 422 89 q 275 0 358 0 q 156 53 210 0 q 72 196 103 106 q 42 394 42 286 q 78 604 42 513 q 175 740 114 696 q 111 808 133 765 q 89 907 89 850 q 146 1055 89 999 q 293 1111 203 1111 q 409 1073 360 1111 q 482 979 458 1035 l 410 936 q 367 1000 396 972 q 293 1028 338 1028 q 205 996 238 1028 q 172 907 172 964 q 208 812 172 849 q 293 775 243 775 l 547 775 l 547 713 m 422 713 l 289 713 q 210 672 249 713 q 149 558 172 631 q 125 394 125 485 q 146 233 125 304 q 201 122 167 161 q 275 83 235 83 q 348 122 314 83 q 402 233 382 161 q 422 394 422 304 l 422 713 z "},"©":{"ha":340,"x_min":42,"x_max":299,"o":"m 171 0 q 79 38 117 0 q 42 129 42 75 q 80 219 42 182 q 171 257 118 257 q 261 219 224 257 q 299 129 299 182 q 261 38 299 76 q 171 0 224 0 m 171 36 q 236 63 210 36 q 263 129 263 90 q 236 194 263 168 q 171 221 210 221 q 105 194 132 221 q 78 129 78 168 q 105 63 78 90 q 171 36 132 36 m 114 128 q 130 176 114 156 q 175 196 146 196 q 202 185 189 196 q 215 157 215 174 l 189 157 q 185 164 189 161 q 175 167 181 167 q 153 156 161 167 q 146 128 146 146 q 153 99 146 110 q 175 89 161 89 q 185 92 181 89 q 189 99 189 94 l 215 99 q 202 70 215 81 q 175 60 189 60 q 130 80 146 60 q 114 128 114 100 z "},"®":{"ha":260,"x_min":42,"x_max":218,"o":"m 131 933 q 68 960 94 933 q 42 1022 42 986 q 68 1085 42 1058 q 131 1111 94 1111 q 192 1085 165 1111 q 218 1022 218 1058 q 192 960 218 986 q 131 933 167 933 m 131 961 q 173 978 156 961 q 190 1022 190 996 q 173 1065 190 1047 q 131 1083 156 1083 q 87 1065 104 1083 q 69 1022 69 1047 q 87 978 69 996 q 131 961 104 961 m 133 1063 q 153 1056 146 1063 q 160 1040 160 1050 q 150 1022 160 1028 q 161 983 161 1015 l 140 983 q 137 1008 140 1000 q 122 1015 133 1015 l 122 983 l 101 983 l 101 1063 l 133 1063 m 129 1031 q 142 1039 142 1031 q 129 1047 142 1047 l 121 1047 l 121 1031 l 129 1031 z "},"™":{"ha":350,"x_min":42,"x_max":308,"o":"m 142 1111 l 142 1088 l 108 1088 l 108 944 l 76 944 l 76 1088 l 42 1088 l 42 1111 l 142 1111 m 308 1111 l 308 943 l 276 943 l 276 1028 l 249 943 l 214 943 l 189 1021 l 189 943 l 157 943 l 157 1111 l 189 1111 l 232 979 l 276 1111 l 308 1111 z "},"°":{"ha":317,"x_min":42,"x_max":275,"o":"m 157 882 q 76 917 111 882 q 42 999 42 951 q 76 1078 42 1044 q 157 1111 111 1111 q 240 1078 206 1111 q 275 999 275 1044 q 240 917 275 951 q 157 882 206 882 m 157 943 q 197 959 181 943 q 214 999 214 975 q 197 1035 214 1019 q 157 1050 181 1050 q 119 1035 136 1050 q 103 999 103 1019 q 119 959 103 975 q 157 943 136 943 z "}}}
